<svg width="289" height="77" viewBox="0 0 289 77" fill="none" xmlns="http://www.w3.org/2000/svg">
<rect x="172" y="8" width="117" height="51" rx="12" fill="#005CFF"/>
<path d="M5.712 50.088C5.328 50.088 4.816 49.704 4.176 48.936C3.568 48.168 3.264 47.464 3.264 46.824C3.264 46.184 4.208 41.72 6.096 33.432C8.016 25.112 8.992 19.96 9.024 17.976C9.024 17.432 9.088 17.064 9.216 16.872C9.376 16.648 9.68 16.536 10.128 16.536C10.608 16.536 11.216 17.032 11.952 18.024C12.72 19.016 13.104 20.088 13.104 21.24C13.104 22.36 11.952 27.608 9.648 36.984C9.424 37.848 9.12 39.096 8.736 40.728C8.352 42.328 8.048 43.56 7.824 44.424C7.6 45.288 7.36 46.232 7.104 47.256C6.56 49.144 6.096 50.088 5.712 50.088ZM21.0514 41.928C24.1234 36.712 26.6194 32.84 28.5394 30.312C30.4914 27.752 32.0754 26.472 33.2914 26.472C34.5394 26.472 35.7074 27.128 36.7954 28.44C37.9154 29.752 38.4754 31.144 38.4754 32.616C38.4754 34.92 37.9474 37.736 36.8914 41.064C34.9714 47.208 33.2434 50.28 31.7074 50.28C31.0034 50.28 30.6514 49.8 30.6514 48.84C30.6514 48.168 30.9874 46.808 31.6594 44.76C32.3634 42.68 33.0034 40.648 33.5794 38.664C34.1874 36.648 34.4914 35.144 34.4914 34.152C34.4914 33.128 34.3314 32.376 34.0114 31.896C33.7234 31.416 33.4194 31.176 33.0994 31.176C32.8114 31.176 32.5074 31.272 32.1874 31.464C31.8674 31.656 31.4994 31.976 31.0834 32.424C30.6994 32.872 30.3314 33.32 29.9794 33.768C29.6274 34.184 29.1794 34.792 28.6354 35.592C28.1234 36.392 27.6914 37.08 27.3394 37.656C26.9874 38.2 26.4754 39 25.8034 40.056C25.1314 41.112 24.6194 41.912 24.2674 42.456C23.9154 43 23.4514 43.736 22.8754 44.664C22.2994 45.592 21.8354 46.312 21.4834 46.824C21.1634 47.336 20.7954 47.896 20.3794 48.504C19.5794 49.688 18.9394 50.28 18.4594 50.28C18.0114 50.28 17.4834 49.928 16.8754 49.224C16.2674 48.488 15.9634 47.848 15.9634 47.304C15.9634 47.144 16.0754 46.712 16.2994 46.008C16.9074 44.152 17.5794 41.864 18.3154 39.144C19.0514 36.392 19.4514 33.272 19.5154 29.784C19.6114 27.448 19.9474 26.28 20.5234 26.28C21.2274 26.28 21.9314 26.648 22.6354 27.384C23.3394 28.12 23.6914 28.936 23.6914 29.832C23.6914 30.696 23.4194 32.392 22.8754 34.92C22.3634 37.416 21.7554 39.752 21.0514 41.928ZM47.3171 45.48C47.3171 46.088 47.6691 46.392 48.3731 46.392C49.5891 46.392 51.0611 46.056 52.7891 45.384C54.5491 44.68 55.5251 44.328 55.7171 44.328C56.2931 44.328 56.5811 44.632 56.5811 45.24C56.5811 46.168 55.6211 47.24 53.7011 48.456C51.8131 49.672 50.0851 50.28 48.5171 50.28C46.9811 50.28 45.7011 49.864 44.6771 49.032C43.6531 48.168 43.1411 47.288 43.1411 46.392C43.1411 45.496 43.3331 44.36 43.7171 42.984C44.1011 41.576 44.6451 39.736 45.3491 37.464C46.0851 35.16 46.6611 33.256 47.0771 31.752C45.5731 32.104 44.5651 32.28 44.0531 32.28C43.5411 32.28 43.0291 32.024 42.5171 31.512C42.0371 30.968 41.7971 30.456 41.7971 29.976C41.7971 29.208 43.8771 28.472 48.0371 27.768C48.6131 25.112 48.9011 22.76 48.9011 20.712C48.9011 19.752 49.2211 19.272 49.8611 19.272C50.4051 19.272 51.0771 19.624 51.8771 20.328C52.6771 21 53.0771 21.768 53.0771 22.632C53.0771 23.496 52.8051 25.016 52.2611 27.192C54.0851 27.032 55.5411 26.952 56.6291 26.952C58.5491 26.952 59.5091 27.368 59.5091 28.2C59.5091 28.68 58.9811 29.08 57.9251 29.4C56.9011 29.72 54.7251 30.216 51.3971 30.888C50.7251 33.416 49.8771 36.312 48.8531 39.576C47.8291 42.808 47.3171 44.776 47.3171 45.48ZM63.3836 32.328L63.2396 28.728C63.2396 27.224 63.5916 26.472 64.2956 26.472C64.9036 26.472 65.4796 26.872 66.0236 27.672C66.5996 28.44 66.8876 29.368 66.8876 30.456C66.8876 31.512 66.8556 32.312 66.7916 32.856C69.5756 28.632 72.2156 26.52 74.7116 26.52C76.2796 26.52 77.0636 26.904 77.0636 27.672C77.0636 28.056 76.8876 28.408 76.5356 28.728C76.1836 29.048 75.6236 29.416 74.8556 29.832C73.1596 30.568 71.7196 31.704 70.5356 33.24C69.3836 34.744 68.4396 36.456 67.7036 38.376C66.9676 40.296 66.3756 41.912 65.9276 43.224C65.5116 44.536 65.1916 45.56 64.9676 46.296C64.7436 47.032 64.4876 47.752 64.1996 48.456C63.6876 49.736 63.0956 50.376 62.4236 50.376C61.8796 50.376 61.4316 50.072 61.0796 49.464C60.7596 48.824 60.5996 48.216 60.5996 47.64C60.5996 47.032 60.8716 45.848 61.4156 44.088C62.7276 40.056 63.3836 36.136 63.3836 32.328ZM89.1623 26.472C90.6023 26.472 91.9303 27.208 93.1463 28.68C94.3623 30.12 94.9703 31.432 94.9703 32.616C94.9703 33.768 94.5703 34.952 93.7703 36.168C94.1543 36.648 94.3463 37.064 94.3463 37.416C94.3463 38.312 94.1383 39.848 93.7223 42.024C93.3383 44.2 93.0983 45.624 93.0023 46.296C92.9383 46.968 92.8743 47.512 92.8103 47.928C92.7463 48.312 92.6663 48.696 92.5703 49.08C92.4423 49.88 92.1543 50.28 91.7063 50.28C91.1303 50.28 90.6503 49.784 90.2663 48.792C89.9143 47.768 89.7063 46.456 89.6423 44.856C86.7943 48.472 84.1543 50.28 81.7223 50.28C80.2503 50.28 78.7943 49.656 77.3543 48.408C75.9463 47.128 75.2423 45.816 75.2423 44.472C75.2423 42.552 75.9463 40.184 77.3543 37.368C78.7623 34.52 80.5863 31.992 82.8263 29.784C85.0663 27.576 87.1783 26.472 89.1623 26.472ZM91.3703 34.92C91.3703 31.944 90.7783 30.456 89.5943 30.456C88.3463 30.456 86.8903 31.352 85.2263 33.144C83.5623 34.904 82.1543 36.904 81.0023 39.144C79.8503 41.384 79.2743 43.16 79.2743 44.472C79.2743 45.016 79.4983 45.464 79.9463 45.816C80.3943 46.136 80.9223 46.296 81.5303 46.296C83.0343 46.296 84.7303 45.288 86.6183 43.272C88.5063 41.224 89.8183 38.744 90.5543 35.832C90.6503 35.352 90.9223 35.064 91.3703 34.968V34.92ZM103.598 41.928C106.67 36.712 109.166 32.84 111.086 30.312C113.038 27.752 114.622 26.472 115.838 26.472C117.086 26.472 118.254 27.128 119.342 28.44C120.462 29.752 121.022 31.144 121.022 32.616C121.022 34.92 120.494 37.736 119.438 41.064C117.518 47.208 115.79 50.28 114.254 50.28C113.55 50.28 113.198 49.8 113.198 48.84C113.198 48.168 113.534 46.808 114.206 44.76C114.91 42.68 115.55 40.648 116.126 38.664C116.734 36.648 117.038 35.144 117.038 34.152C117.038 33.128 116.878 32.376 116.558 31.896C116.27 31.416 115.966 31.176 115.646 31.176C115.358 31.176 115.054 31.272 114.734 31.464C114.414 31.656 114.046 31.976 113.63 32.424C113.246 32.872 112.878 33.32 112.526 33.768C112.174 34.184 111.726 34.792 111.182 35.592C110.67 36.392 110.238 37.08 109.886 37.656C109.534 38.2 109.022 39 108.35 40.056C107.678 41.112 107.166 41.912 106.814 42.456C106.462 43 105.998 43.736 105.422 44.664C104.846 45.592 104.382 46.312 104.03 46.824C103.71 47.336 103.342 47.896 102.926 48.504C102.126 49.688 101.486 50.28 101.006 50.28C100.558 50.28 100.03 49.928 99.4223 49.224C98.8143 48.488 98.5103 47.848 98.5103 47.304C98.5103 47.144 98.6223 46.712 98.8463 46.008C99.4543 44.152 100.126 41.864 100.862 39.144C101.598 36.392 101.998 33.272 102.062 29.784C102.158 27.448 102.494 26.28 103.07 26.28C103.774 26.28 104.478 26.648 105.182 27.384C105.886 28.12 106.238 28.936 106.238 29.832C106.238 30.696 105.966 32.392 105.422 34.92C104.91 37.416 104.302 39.752 103.598 41.928ZM143.64 34.44C143.64 36.136 142.712 37.528 140.856 38.616C139.032 39.672 136.952 40.2 134.616 40.2C132.312 40.2 130.216 39.944 128.328 39.432C127.88 40.84 127.656 42.104 127.656 43.224C127.656 44.312 127.992 45.16 128.664 45.768C129.368 46.376 130.504 46.68 132.072 46.68C133.672 46.68 135.304 46.408 136.968 45.864C138.664 45.288 139.592 45 139.752 45C140.584 45 141 45.32 141 45.96C141 46.824 140.024 47.768 138.072 48.792C136.12 49.784 134.216 50.28 132.36 50.28C129.864 50.28 127.832 49.544 126.264 48.072C124.696 46.568 123.912 44.68 123.912 42.408C123.912 40.136 124.52 37.768 125.736 35.304C126.952 32.808 128.52 30.712 130.44 29.016C132.36 27.32 134.264 26.472 136.152 26.472C138.04 26.472 139.752 27.368 141.288 29.16C142.856 30.952 143.64 32.712 143.64 34.44ZM136.392 30.264C135.208 30.264 133.976 30.888 132.696 32.136C131.416 33.352 130.328 34.872 129.432 36.696C130.712 36.984 132.168 37.128 133.8 37.128C135.432 37.128 136.856 36.872 138.072 36.36C139.288 35.816 139.896 35.112 139.896 34.248C139.896 33.384 139.496 32.504 138.696 31.608C137.928 30.712 137.16 30.264 136.392 30.264ZM151.473 45.48C151.473 46.088 151.825 46.392 152.529 46.392C153.745 46.392 155.217 46.056 156.945 45.384C158.705 44.68 159.681 44.328 159.873 44.328C160.449 44.328 160.737 44.632 160.737 45.24C160.737 46.168 159.777 47.24 157.857 48.456C155.969 49.672 154.241 50.28 152.673 50.28C151.137 50.28 149.857 49.864 148.833 49.032C147.809 48.168 147.297 47.288 147.297 46.392C147.297 45.496 147.489 44.36 147.873 42.984C148.257 41.576 148.801 39.736 149.505 37.464C150.241 35.16 150.817 33.256 151.233 31.752C149.729 32.104 148.721 32.28 148.209 32.28C147.697 32.28 147.185 32.024 146.673 31.512C146.193 30.968 145.953 30.456 145.953 29.976C145.953 29.208 148.033 28.472 152.193 27.768C152.769 25.112 153.057 22.76 153.057 20.712C153.057 19.752 153.377 19.272 154.017 19.272C154.561 19.272 155.233 19.624 156.033 20.328C156.833 21 157.233 21.768 157.233 22.632C157.233 23.496 156.961 25.016 156.417 27.192C158.241 27.032 159.697 26.952 160.785 26.952C162.705 26.952 163.665 27.368 163.665 28.2C163.665 28.68 163.137 29.08 162.081 29.4C161.057 29.72 158.881 30.216 155.553 30.888C154.881 33.416 154.033 36.312 153.009 39.576C151.985 42.808 151.473 44.776 151.473 45.48Z" fill="#005CFF"/>
<path d="M191.99 17.64C191.99 17.128 192.054 16.76 192.182 16.536C192.342 16.312 192.646 16.2 193.094 16.2C193.574 16.2 194.166 16.6 194.87 17.4C195.574 18.2 195.926 19.048 195.926 19.944C195.926 22.184 194.55 27.848 191.798 36.936C190.422 41.352 189.734 43.992 189.734 44.856C189.734 45.72 190.15 46.152 190.982 46.152C194.598 46.152 198.566 45.56 202.886 44.376C204.262 43.992 205.078 43.8 205.334 43.8C205.622 43.8 205.814 43.864 205.91 43.992C206.006 44.088 206.054 44.296 206.054 44.616C206.054 45.96 204.406 47.224 201.11 48.408C197.846 49.592 194.518 50.184 191.126 50.184C189.59 50.184 188.246 49.736 187.094 48.84C185.974 47.944 185.414 46.888 185.414 45.672C185.414 44.424 186.502 39.992 188.678 32.376C190.886 24.76 191.99 19.848 191.99 17.64ZM216.273 19.656C216.273 19.016 216.529 18.408 217.041 17.832C217.553 17.256 218.065 16.968 218.577 16.968C219.121 16.968 219.761 17.624 220.497 18.936C221.233 20.216 221.601 21.288 221.601 22.152C221.601 22.472 221.457 22.76 221.169 23.016C220.881 23.272 220.577 23.4 220.257 23.4C219.489 23.4 218.625 22.936 217.665 22.008C216.737 21.08 216.273 20.296 216.273 19.656ZM216.033 26.472C216.641 26.472 217.217 26.84 217.761 27.576C218.305 28.312 218.577 29.032 218.577 29.736C218.577 30.44 218.113 32.552 217.185 36.072C216.257 39.56 215.089 43.48 213.681 47.832C213.137 49.432 212.449 50.232 211.617 50.232C211.169 50.232 210.785 50.056 210.465 49.704C210.145 49.32 209.985 48.904 209.985 48.456C209.985 47.976 210.097 47.24 210.321 46.248C210.577 45.224 210.929 43.88 211.377 42.216C211.857 40.52 212.225 39.144 212.481 38.088C212.769 37.032 213.057 35.848 213.345 34.536C213.633 33.192 213.857 32.12 214.017 31.32C214.209 30.488 214.417 29.656 214.641 28.824C215.089 27.256 215.553 26.472 216.033 26.472ZM238.126 26.472C238.67 26.472 239.198 26.68 239.71 27.096C240.222 27.48 240.478 27.912 240.478 28.392C240.478 29.256 239.31 32.248 236.974 37.368C234.67 42.488 233.022 45.944 232.03 47.736C231.07 49.496 230.222 50.376 229.486 50.376C229.07 50.376 228.558 50.072 227.95 49.464C227.342 48.856 226.894 48.2 226.606 47.496C225.742 45.48 224.814 42.232 223.822 37.752C222.83 33.272 222.334 29.992 222.334 27.912C222.334 26.952 222.622 26.472 223.198 26.472C223.902 26.472 224.622 26.776 225.358 27.384C226.094 27.96 226.606 28.696 226.894 29.592C226.99 30.104 227.118 31.384 227.278 33.432C227.726 38.488 228.494 42.376 229.582 45.096C230.446 43.24 231.55 40.616 232.894 37.224C234.238 33.8 235.326 31.16 236.158 29.304C237.022 27.416 237.678 26.472 238.126 26.472ZM244.696 32.328L244.552 28.728C244.552 27.224 244.904 26.472 245.608 26.472C246.216 26.472 246.792 26.872 247.336 27.672C247.912 28.44 248.2 29.368 248.2 30.456C248.2 31.512 248.168 32.312 248.104 32.856C250.888 28.632 253.528 26.52 256.024 26.52C257.592 26.52 258.376 26.904 258.376 27.672C258.376 28.056 258.2 28.408 257.848 28.728C257.496 29.048 256.936 29.416 256.168 29.832C254.472 30.568 253.032 31.704 251.848 33.24C250.696 34.744 249.752 36.456 249.016 38.376C248.28 40.296 247.688 41.912 247.24 43.224C246.824 44.536 246.504 45.56 246.28 46.296C246.056 47.032 245.8 47.752 245.512 48.456C245 49.736 244.408 50.376 243.736 50.376C243.192 50.376 242.744 50.072 242.392 49.464C242.072 48.824 241.912 48.216 241.912 47.64C241.912 47.032 242.184 45.848 242.728 44.088C244.04 40.056 244.696 36.136 244.696 32.328ZM276.859 34.44C276.859 36.136 275.931 37.528 274.075 38.616C272.251 39.672 270.171 40.2 267.835 40.2C265.531 40.2 263.435 39.944 261.547 39.432C261.099 40.84 260.875 42.104 260.875 43.224C260.875 44.312 261.211 45.16 261.883 45.768C262.587 46.376 263.723 46.68 265.291 46.68C266.891 46.68 268.523 46.408 270.187 45.864C271.883 45.288 272.811 45 272.971 45C273.803 45 274.219 45.32 274.219 45.96C274.219 46.824 273.243 47.768 271.291 48.792C269.339 49.784 267.435 50.28 265.579 50.28C263.083 50.28 261.051 49.544 259.483 48.072C257.915 46.568 257.131 44.68 257.131 42.408C257.131 40.136 257.739 37.768 258.955 35.304C260.171 32.808 261.739 30.712 263.659 29.016C265.579 27.32 267.483 26.472 269.371 26.472C271.259 26.472 272.971 27.368 274.507 29.16C276.075 30.952 276.859 32.712 276.859 34.44ZM269.611 30.264C268.427 30.264 267.195 30.888 265.915 32.136C264.635 33.352 263.547 34.872 262.651 36.696C263.931 36.984 265.387 37.128 267.019 37.128C268.651 37.128 270.075 36.872 271.291 36.36C272.507 35.816 273.115 35.112 273.115 34.248C273.115 33.384 272.715 32.504 271.915 31.608C271.147 30.712 270.379 30.264 269.611 30.264Z" fill="white"/>
</svg>
